<svg xmlns="http://www.w3.org/2000/svg" viewBox="0 0 240 240" width="240" height="240">
  <!-- Dark background -->
  <rect width="240" height="240" fill="#0a0a0a" rx="24"/>
  
  <!-- Flame icon (scaled and centered) -->
  <g transform="translate(60, 40) scale(4)">
    <!-- Outer flame -->
    <path fill="#ff8c00" d="M15 2c-1.5 3-1 6 0 8 1 2 2 4 1 6-1 2-3 3-3 5s2 4 2 6c0 1.5-.5 3-2 4 3-1 5-3 6-5 1-2 1-4 0-6-1-2-2-4-1-6s3-4 3-6c0-3-2-5-6-6z"/>
    <!-- Inner flame (lighter) -->
    <path fill="#ffb347" d="M15 6c-1 2-.5 4 .5 5.5s2 3 1.5 4.5c-.5 1.5-2 2.5-2 4s1.5 3 1.5 4.5c0 1-.5 2-1.5 2.5 2-.5 3.5-2 4-3.5.5-1.5.5-3 0-4.5s-1.5-3-1-4.5 2-3 2-4.5c0-2-1.5-3.5-5-4z"/>
  </g>
  
  <!-- "F" letter stylized -->
  <text x="120" y="195" 
        font-family="monospace" 
        font-size="48" 
        font-weight="bold" 
        fill="#ff8c00" 
        text-anchor="middle">
    FORGE
  </text>
</svg>
